<?xml version="1.0" encoding="UTF-8" standalone="no"?>
<!DOCTYPE svg PUBLIC "-//W3C//DTD SVG 1.1//EN"
 "http://www.w3.org/Graphics/SVG/1.1/DTD/svg11.dtd">
<!-- Generated by graphviz version 14.0.2 (20251019.1705)
 -->
<!-- Pages: 1 -->
<svg width="205pt" height="332pt"
 viewBox="0.00 0.00 205.00 332.00" xmlns="http://www.w3.org/2000/svg" xmlns:xlink="http://www.w3.org/1999/xlink">
<g id="graph0" class="graph" transform="scale(1 1) rotate(0) translate(4 328)">
<polygon fill="white" stroke="none" points="-4,4 -4,-328 201.25,-328 201.25,4 -4,4"/>
<!-- FirstComponent -->
<g id="node1" class="node">
<title>FirstComponent</title>
<polygon fill="blue" stroke="blue" points="117.46,-324 12.96,-324 12.96,-288 117.46,-288 117.46,-324"/>
<text xml:space="preserve" text-anchor="middle" x="65.21" y="-300.95" font-family="Times,serif" font-size="14.00" fill="white">FirstComponent</text>
</g>
<!-- nestedAction1 -->
<g id="node2" class="node">
<title>nestedAction1</title>
<ellipse fill="lightcyan" stroke="black" cx="65.21" cy="-234" rx="64.15" ry="18"/>
<text xml:space="preserve" text-anchor="middle" x="65.21" y="-228.95" font-family="Times,serif" font-size="14.00">nestedAction1</text>
</g>
<!-- FirstComponent&#45;&gt;nestedAction1 -->
<g id="edge1" class="edge">
<title>FirstComponent&#45;&gt;nestedAction1</title>
<path fill="none" stroke="black" d="M65.21,-287.7C65.21,-280.41 65.21,-271.73 65.21,-263.54"/>
<polygon fill="black" stroke="black" points="68.71,-263.62 65.21,-253.62 61.71,-263.62 68.71,-263.62"/>
</g>
<!-- action1 -->
<g id="node3" class="node">
<title>action1</title>
<ellipse fill="linen" stroke="black" cx="65.21" cy="-162" rx="38.04" ry="18"/>
<text xml:space="preserve" text-anchor="middle" x="65.21" y="-156.95" font-family="Times,serif" font-size="14.00">action1</text>
</g>
<!-- nestedAction1&#45;&gt;action1 -->
<g id="edge5" class="edge">
<title>nestedAction1&#45;&gt;action1</title>
<path fill="none" stroke="black" d="M59.29,-215.7C58.46,-207.64 58.25,-197.89 58.66,-188.98"/>
<ellipse fill="black" stroke="black" cx="58.98" cy="-184.59" rx="4" ry="4"/>
</g>
<!-- action2 -->
<g id="node6" class="node">
<title>action2</title>
<ellipse fill="none" stroke="black" cx="159.21" cy="-162" rx="38.04" ry="18"/>
<text xml:space="preserve" text-anchor="middle" x="159.21" y="-156.95" font-family="Times,serif" font-size="14.00">action2</text>
</g>
<!-- nestedAction1&#45;&gt;action2 -->
<g id="edge6" class="edge">
<title>nestedAction1&#45;&gt;action2</title>
<path fill="none" stroke="black" d="M87.01,-216.76C100.49,-206.72 117.91,-193.75 132.26,-183.07"/>
<ellipse fill="black" stroke="black" cx="135.83" cy="-180.4" rx="4" ry="4"/>
</g>
<!-- action1&#45;&gt;nestedAction1 -->
<g id="edge3" class="edge">
<title>action1&#45;&gt;nestedAction1</title>
<path fill="none" stroke="black" d="M71.1,-180.1C71.86,-187.37 72.11,-196.04 71.86,-204.24"/>
<polygon fill="black" stroke="black" points="68.37,-203.98 71.22,-214.19 75.35,-204.43 68.37,-203.98"/>
</g>
<!-- action3 -->
<g id="node4" class="node">
<title>action3</title>
<ellipse fill="#007000" stroke="green" cx="65.21" cy="-90" rx="38.04" ry="18"/>
<text xml:space="preserve" text-anchor="middle" x="65.21" y="-84.95" font-family="Times,serif" font-size="14.00" fill="white">action3</text>
</g>
<!-- action1&#45;&gt;action3 -->
<g id="edge4" class="edge">
<title>action1&#45;&gt;action3</title>
<path fill="none" stroke="black" d="M65.21,-143.7C65.21,-136.41 65.21,-127.73 65.21,-119.54"/>
<polygon fill="black" stroke="black" points="68.71,-119.62 65.21,-109.62 61.71,-119.62 68.71,-119.62"/>
</g>
<!-- firstReducer -->
<g id="node5" class="node">
<title>firstReducer</title>
<polygon fill="purple" stroke="purple" points="130.41,-18 97.81,-36 32.6,-36 0,-18 32.6,0 97.81,0 130.41,-18"/>
<text xml:space="preserve" text-anchor="middle" x="65.21" y="-12.95" font-family="Times,serif" font-size="14.00" fill="white">firstReducer</text>
</g>
<!-- action3&#45;&gt;firstReducer -->
<g id="edge2" class="edge">
<title>action3&#45;&gt;firstReducer</title>
<path fill="none" stroke="black" d="M65.21,-71.7C65.21,-64.41 65.21,-55.73 65.21,-47.54"/>
<polygon fill="black" stroke="black" points="68.71,-47.62 65.21,-37.62 61.71,-47.62 68.71,-47.62"/>
</g>
</g>
</svg>
