<?xml version="1.0" encoding="UTF-8" standalone="no"?>
<!DOCTYPE svg PUBLIC "-//W3C//DTD SVG 1.1//EN"
 "http://www.w3.org/Graphics/SVG/1.1/DTD/svg11.dtd">
<!-- Generated by graphviz version 14.0.2 (20251019.1705)
 -->
<!-- Pages: 1 -->
<svg width="323pt" height="332pt"
 viewBox="0.00 0.00 323.00 332.00" xmlns="http://www.w3.org/2000/svg" xmlns:xlink="http://www.w3.org/1999/xlink">
<g id="graph0" class="graph" transform="scale(1 1) rotate(0) translate(4 328)">
<polygon fill="white" stroke="none" points="-4,4 -4,-328 319.35,-328 319.35,4 -4,4"/>
<!-- FirstComponent -->
<g id="node1" class="node">
<title>FirstComponent</title>
<polygon fill="blue" stroke="blue" points="241.4,-324 136.9,-324 136.9,-288 241.4,-288 241.4,-324"/>
<text xml:space="preserve" text-anchor="middle" x="189.15" y="-300.95" font-family="Times,serif" font-size="14.00" fill="white">FirstComponent</text>
</g>
<!-- nestedAction1 -->
<g id="node2" class="node">
<title>nestedAction1</title>
<ellipse fill="none" stroke="black" cx="189.15" cy="-234" rx="64.15" ry="18"/>
<text xml:space="preserve" text-anchor="middle" x="189.15" y="-228.95" font-family="Times,serif" font-size="14.00">nestedAction1</text>
</g>
<!-- FirstComponent&#45;&gt;nestedAction1 -->
<g id="edge1" class="edge">
<title>FirstComponent&#45;&gt;nestedAction1</title>
<path fill="none" stroke="black" d="M189.15,-287.7C189.15,-280.41 189.15,-271.73 189.15,-263.54"/>
<polygon fill="black" stroke="black" points="192.65,-263.62 189.15,-253.62 185.65,-263.62 192.65,-263.62"/>
</g>
<!-- nestedAction2 -->
<g id="node3" class="node">
<title>nestedAction2</title>
<ellipse fill="none" stroke="black" cx="64.15" cy="-162" rx="64.15" ry="18"/>
<text xml:space="preserve" text-anchor="middle" x="64.15" y="-156.95" font-family="Times,serif" font-size="14.00">nestedAction2</text>
</g>
<!-- nestedAction1&#45;&gt;nestedAction2 -->
<g id="edge5" class="edge">
<title>nestedAction1&#45;&gt;nestedAction2</title>
<path fill="none" stroke="black" d="M161.41,-217.46C143.85,-207.63 120.92,-194.79 101.74,-184.05"/>
<polygon fill="black" stroke="black" points="103.57,-181.06 93.13,-179.23 100.15,-187.17 103.57,-181.06"/>
</g>
<!-- action1 -->
<g id="node4" class="node">
<title>action1</title>
<ellipse fill="#007000" stroke="green" cx="222.15" cy="-162" rx="38.04" ry="18"/>
<text xml:space="preserve" text-anchor="middle" x="222.15" y="-156.95" font-family="Times,serif" font-size="14.00" fill="white">action1</text>
</g>
<!-- nestedAction1&#45;&gt;action1 -->
<g id="edge6" class="edge">
<title>nestedAction1&#45;&gt;action1</title>
<path fill="none" stroke="black" d="M191.39,-215.7C194.6,-206.97 199.49,-196.24 204.52,-186.75"/>
<ellipse fill="black" stroke="black" cx="206.56" cy="-183.08" rx="4" ry="4"/>
</g>
<!-- action2 -->
<g id="node5" class="node">
<title>action2</title>
<ellipse fill="#f5e9d6" stroke="black" cx="156.15" cy="-90" rx="38.04" ry="18"/>
<text xml:space="preserve" text-anchor="middle" x="156.15" y="-84.95" font-family="Times,serif" font-size="14.00">action2</text>
</g>
<!-- nestedAction1&#45;&gt;action2 -->
<g id="edge7" class="edge">
<title>nestedAction1&#45;&gt;action2</title>
<path fill="none" stroke="black" d="M184.4,-215.87C181.58,-205.51 178.02,-192.03 175.15,-180 170.09,-158.8 164.96,-134.6 161.31,-116.8"/>
<ellipse fill="black" stroke="black" cx="160.44" cy="-112.53" rx="4" ry="4"/>
</g>
<!-- action1&#45;&gt;nestedAction1 -->
<g id="edge2" class="edge">
<title>action1&#45;&gt;nestedAction1</title>
<path fill="none" stroke="black" d="M219.92,-180.28C217.06,-188.03 212.89,-197.36 208.46,-206.01"/>
<polygon fill="black" stroke="black" points="205.43,-204.27 203.73,-214.72 211.58,-207.6 205.43,-204.27"/>
</g>
<!-- action1&#45;&gt;action2 -->
<g id="edge3" class="edge">
<title>action1&#45;&gt;action2</title>
<path fill="none" stroke="black" d="M207.17,-145.12C198.82,-136.26 188.24,-125.04 178.88,-115.12"/>
<polygon fill="black" stroke="black" points="181.51,-112.8 172.1,-107.92 176.42,-117.6 181.51,-112.8"/>
</g>
<!-- action3 -->
<g id="node6" class="node">
<title>action3</title>
<ellipse fill="none" stroke="black" cx="250.15" cy="-90" rx="38.04" ry="18"/>
<text xml:space="preserve" text-anchor="middle" x="250.15" y="-84.95" font-family="Times,serif" font-size="14.00">action3</text>
</g>
<!-- action1&#45;&gt;action3 -->
<g id="edge4" class="edge">
<title>action1&#45;&gt;action3</title>
<path fill="none" stroke="black" d="M228.92,-144.05C232.02,-136.32 235.76,-126.96 239.24,-118.27"/>
<polygon fill="black" stroke="black" points="242.4,-119.78 242.87,-109.19 235.91,-117.18 242.4,-119.78"/>
</g>
<!-- firstReducer -->
<g id="node7" class="node">
<title>firstReducer</title>
<polygon fill="purple" stroke="purple" points="315.35,-18 282.75,-36 217.54,-36 184.94,-18 217.54,0 282.75,0 315.35,-18"/>
<text xml:space="preserve" text-anchor="middle" x="250.15" y="-12.95" font-family="Times,serif" font-size="14.00" fill="white">firstReducer</text>
</g>
<!-- action3&#45;&gt;firstReducer -->
<g id="edge8" class="edge">
<title>action3&#45;&gt;firstReducer</title>
<path fill="none" stroke="black" d="M250.15,-71.7C250.15,-64.41 250.15,-55.73 250.15,-47.54"/>
<polygon fill="black" stroke="black" points="253.65,-47.62 250.15,-37.62 246.65,-47.62 253.65,-47.62"/>
</g>
</g>
</svg>
