<?xml version="1.0" encoding="UTF-8" standalone="no"?>
<!DOCTYPE svg PUBLIC "-//W3C//DTD SVG 1.1//EN"
 "http://www.w3.org/Graphics/SVG/1.1/DTD/svg11.dtd">
<!-- Generated by graphviz version 14.0.2 (20251019.1705)
 -->
<!-- Pages: 1 -->
<svg width="143pt" height="260pt"
 viewBox="0.00 0.00 143.00 260.00" xmlns="http://www.w3.org/2000/svg" xmlns:xlink="http://www.w3.org/1999/xlink">
<g id="graph0" class="graph" transform="scale(1 1) rotate(0) translate(4 256)">
<polygon fill="white" stroke="none" points="-4,4 -4,-256 139.19,-256 139.19,4 -4,4"/>
<!-- FirstComponent -->
<g id="node1" class="node">
<title>FirstComponent</title>
<polygon fill="blue" stroke="blue" points="116.4,-252 11.9,-252 11.9,-216 116.4,-216 116.4,-252"/>
<text xml:space="preserve" text-anchor="middle" x="64.15" y="-228.95" font-family="Times,serif" font-size="14.00" fill="white">FirstComponent</text>
</g>
<!-- nestedAction1 -->
<g id="node2" class="node">
<title>nestedAction1</title>
<ellipse fill="none" stroke="black" cx="64.15" cy="-162" rx="64.15" ry="18"/>
<text xml:space="preserve" text-anchor="middle" x="64.15" y="-156.95" font-family="Times,serif" font-size="14.00">nestedAction1</text>
</g>
<!-- FirstComponent&#45;&gt;nestedAction1 -->
<g id="edge1" class="edge">
<title>FirstComponent&#45;&gt;nestedAction1</title>
<path fill="none" stroke="black" d="M64.15,-215.7C64.15,-208.41 64.15,-199.73 64.15,-191.54"/>
<polygon fill="black" stroke="black" points="67.65,-191.62 64.15,-181.62 60.65,-191.62 67.65,-191.62"/>
</g>
<!-- action1 -->
<g id="node3" class="node">
<title>action1</title>
<ellipse fill="#f5e9d6" stroke="black" cx="64.15" cy="-90" rx="38.04" ry="18"/>
<text xml:space="preserve" text-anchor="middle" x="64.15" y="-84.95" font-family="Times,serif" font-size="14.00">action1</text>
</g>
<!-- nestedAction1&#45;&gt;action1 -->
<g id="edge4" class="edge">
<title>nestedAction1&#45;&gt;action1</title>
<path fill="none" stroke="black" d="M58.23,-143.7C57.4,-135.64 57.19,-125.89 57.6,-116.98"/>
<ellipse fill="black" stroke="black" cx="57.92" cy="-112.59" rx="4" ry="4"/>
</g>
<!-- action2 -->
<g id="node4" class="node">
<title>action2</title>
<ellipse fill="#007000" stroke="green" cx="97.15" cy="-18" rx="38.04" ry="18"/>
<text xml:space="preserve" text-anchor="middle" x="97.15" y="-12.95" font-family="Times,serif" font-size="14.00" fill="white">action2</text>
</g>
<!-- nestedAction1&#45;&gt;action2 -->
<g id="edge5" class="edge">
<title>nestedAction1&#45;&gt;action2</title>
<path fill="none" stroke="black" d="M84.43,-144.63C94.54,-135.14 105.74,-122.26 111.15,-108 118.97,-87.39 113.93,-62.5 107.83,-44.29"/>
<ellipse fill="black" stroke="black" cx="106.33" cy="-40.16" rx="4" ry="4"/>
</g>
<!-- action1&#45;&gt;nestedAction1 -->
<g id="edge2" class="edge">
<title>action1&#45;&gt;nestedAction1</title>
<path fill="none" stroke="black" d="M70.04,-108.1C70.8,-115.37 71.06,-124.04 70.8,-132.24"/>
<polygon fill="black" stroke="black" points="67.31,-131.98 70.16,-142.19 74.3,-132.43 67.31,-131.98"/>
</g>
<!-- action1&#45;&gt;action2 -->
<g id="edge3" class="edge">
<title>action1&#45;&gt;action2</title>
<path fill="none" stroke="black" d="M72.13,-72.05C75.82,-64.23 80.29,-54.75 84.43,-45.98"/>
<polygon fill="black" stroke="black" points="87.49,-47.7 88.59,-37.16 81.16,-44.71 87.49,-47.7"/>
</g>
</g>
</svg>
