<?xml version="1.0" encoding="UTF-8" standalone="no"?>
<!DOCTYPE svg PUBLIC "-//W3C//DTD SVG 1.1//EN"
 "http://www.w3.org/Graphics/SVG/1.1/DTD/svg11.dtd">
<!-- Generated by graphviz version 14.0.2 (20251019.1705)
 -->
<!-- Pages: 1 -->
<svg width="324pt" height="332pt"
 viewBox="0.00 0.00 324.00 332.00" xmlns="http://www.w3.org/2000/svg" xmlns:xlink="http://www.w3.org/1999/xlink">
<g id="graph0" class="graph" transform="scale(1 1) rotate(0) translate(4 328)">
<polygon fill="white" stroke="none" points="-4,4 -4,-328 320.19,-328 320.19,4 -4,4"/>
<!-- FirstComponent -->
<g id="node1" class="node">
<title>FirstComponent</title>
<polygon fill="blue" stroke="blue" points="236.4,-324 131.9,-324 131.9,-288 236.4,-288 236.4,-324"/>
<text xml:space="preserve" text-anchor="middle" x="184.15" y="-300.95" font-family="Times,serif" font-size="14.00" fill="white">FirstComponent</text>
</g>
<!-- nestedAction1 -->
<g id="node2" class="node">
<title>nestedAction1</title>
<ellipse fill="lightcyan" stroke="black" cx="184.15" cy="-234" rx="64.15" ry="18"/>
<text xml:space="preserve" text-anchor="middle" x="184.15" y="-228.95" font-family="Times,serif" font-size="14.00">nestedAction1</text>
</g>
<!-- FirstComponent&#45;&gt;nestedAction1 -->
<g id="edge1" class="edge">
<title>FirstComponent&#45;&gt;nestedAction1</title>
<path fill="none" stroke="black" d="M184.15,-287.7C184.15,-280.41 184.15,-271.73 184.15,-263.54"/>
<polygon fill="black" stroke="black" points="187.65,-263.62 184.15,-253.62 180.65,-263.62 187.65,-263.62"/>
</g>
<!-- nestedAction2 -->
<g id="node3" class="node">
<title>nestedAction2</title>
<ellipse fill="lightcyan" stroke="black" cx="64.15" cy="-162" rx="64.15" ry="18"/>
<text xml:space="preserve" text-anchor="middle" x="64.15" y="-156.95" font-family="Times,serif" font-size="14.00">nestedAction2</text>
</g>
<!-- nestedAction1&#45;&gt;nestedAction2 -->
<g id="edge4" class="edge">
<title>nestedAction1&#45;&gt;nestedAction2</title>
<path fill="none" stroke="black" d="M157.22,-217.29C140.54,-207.56 118.91,-194.95 100.7,-184.32"/>
<polygon fill="black" stroke="black" points="102.7,-181.44 92.29,-179.42 99.17,-187.48 102.7,-181.44"/>
</g>
<!-- action1 -->
<g id="node4" class="node">
<title>action1</title>
<ellipse fill="linen" stroke="black" cx="184.15" cy="-162" rx="38.04" ry="18"/>
<text xml:space="preserve" text-anchor="middle" x="184.15" y="-156.95" font-family="Times,serif" font-size="14.00">action1</text>
</g>
<!-- nestedAction1&#45;&gt;action1 -->
<g id="edge6" class="edge">
<title>nestedAction1&#45;&gt;action1</title>
<path fill="none" stroke="black" d="M178.23,-215.7C177.4,-207.64 177.19,-197.89 177.6,-188.98"/>
<ellipse fill="black" stroke="black" cx="177.92" cy="-184.59" rx="4" ry="4"/>
</g>
<!-- action2 -->
<g id="node5" class="node">
<title>action2</title>
<ellipse fill="linen" stroke="black" cx="278.15" cy="-162" rx="38.04" ry="18"/>
<text xml:space="preserve" text-anchor="middle" x="278.15" y="-156.95" font-family="Times,serif" font-size="14.00">action2</text>
</g>
<!-- nestedAction1&#45;&gt;action2 -->
<g id="edge7" class="edge">
<title>nestedAction1&#45;&gt;action2</title>
<path fill="none" stroke="black" d="M205.95,-216.76C219.43,-206.72 236.85,-193.75 251.2,-183.07"/>
<ellipse fill="black" stroke="black" cx="254.77" cy="-180.4" rx="4" ry="4"/>
</g>
<!-- action1&#45;&gt;nestedAction1 -->
<g id="edge2" class="edge">
<title>action1&#45;&gt;nestedAction1</title>
<path fill="none" stroke="black" d="M190.04,-180.1C190.8,-187.37 191.06,-196.04 190.8,-204.24"/>
<polygon fill="black" stroke="black" points="187.31,-203.98 190.16,-214.19 194.3,-204.43 187.31,-203.98"/>
</g>
<!-- action3 -->
<g id="node6" class="node">
<title>action3</title>
<ellipse fill="linen" stroke="black" cx="184.15" cy="-90" rx="38.04" ry="18"/>
<text xml:space="preserve" text-anchor="middle" x="184.15" y="-84.95" font-family="Times,serif" font-size="14.00">action3</text>
</g>
<!-- action1&#45;&gt;action3 -->
<g id="edge3" class="edge">
<title>action1&#45;&gt;action3</title>
<path fill="none" stroke="black" d="M184.15,-143.7C184.15,-136.41 184.15,-127.73 184.15,-119.54"/>
<polygon fill="black" stroke="black" points="187.65,-119.62 184.15,-109.62 180.65,-119.62 187.65,-119.62"/>
</g>
<!-- firstReducer -->
<g id="node7" class="node">
<title>firstReducer</title>
<polygon fill="purple" stroke="purple" points="249.35,-18 216.75,-36 151.54,-36 118.94,-18 151.54,0 216.75,0 249.35,-18"/>
<text xml:space="preserve" text-anchor="middle" x="184.15" y="-12.95" font-family="Times,serif" font-size="14.00" fill="white">firstReducer</text>
</g>
<!-- action3&#45;&gt;firstReducer -->
<g id="edge5" class="edge">
<title>action3&#45;&gt;firstReducer</title>
<path fill="none" stroke="black" d="M184.15,-71.7C184.15,-64.41 184.15,-55.73 184.15,-47.54"/>
<polygon fill="black" stroke="black" points="187.65,-47.62 184.15,-37.62 180.65,-47.62 187.65,-47.62"/>
</g>
</g>
</svg>
