<?xml version="1.0" encoding="UTF-8" standalone="no"?>
<!DOCTYPE svg PUBLIC "-//W3C//DTD SVG 1.1//EN"
 "http://www.w3.org/Graphics/SVG/1.1/DTD/svg11.dtd">
<!-- Generated by graphviz version 14.0.2 (20251019.1705)
 -->
<!-- Pages: 1 -->
<svg width="324pt" height="188pt"
 viewBox="0.00 0.00 324.00 188.00" xmlns="http://www.w3.org/2000/svg" xmlns:xlink="http://www.w3.org/1999/xlink">
<g id="graph0" class="graph" transform="scale(1 1) rotate(0) translate(4 184)">
<polygon fill="white" stroke="none" points="-4,4 -4,-184 320.19,-184 320.19,4 -4,4"/>
<!-- FirstComponent -->
<g id="node1" class="node">
<title>FirstComponent</title>
<polygon fill="blue" stroke="blue" points="236.4,-180 131.9,-180 131.9,-144 236.4,-144 236.4,-180"/>
<text xml:space="preserve" text-anchor="middle" x="184.15" y="-156.95" font-family="Times,serif" font-size="14.00" fill="white">FirstComponent</text>
</g>
<!-- nestedAction1 -->
<g id="node2" class="node">
<title>nestedAction1</title>
<ellipse fill="lightcyan" stroke="black" cx="184.15" cy="-90" rx="64.15" ry="18"/>
<text xml:space="preserve" text-anchor="middle" x="184.15" y="-84.95" font-family="Times,serif" font-size="14.00">nestedAction1</text>
</g>
<!-- FirstComponent&#45;&gt;nestedAction1 -->
<g id="edge1" class="edge">
<title>FirstComponent&#45;&gt;nestedAction1</title>
<path fill="none" stroke="black" d="M184.15,-143.7C184.15,-136.41 184.15,-127.73 184.15,-119.54"/>
<polygon fill="black" stroke="black" points="187.65,-119.62 184.15,-109.62 180.65,-119.62 187.65,-119.62"/>
</g>
<!-- nestedAction2 -->
<g id="node3" class="node">
<title>nestedAction2</title>
<ellipse fill="#007000" stroke="green" cx="64.15" cy="-18" rx="64.15" ry="18"/>
<text xml:space="preserve" text-anchor="middle" x="64.15" y="-12.95" font-family="Times,serif" font-size="14.00" fill="white">nestedAction2</text>
</g>
<!-- nestedAction1&#45;&gt;nestedAction2 -->
<g id="edge2" class="edge">
<title>nestedAction1&#45;&gt;nestedAction2</title>
<path fill="none" stroke="black" d="M157.22,-73.29C140.54,-63.56 118.91,-50.95 100.7,-40.32"/>
<polygon fill="black" stroke="black" points="102.7,-37.44 92.29,-35.42 99.17,-43.48 102.7,-37.44"/>
</g>
<!-- action1 -->
<g id="node4" class="node">
<title>action1</title>
<ellipse fill="linen" stroke="black" cx="184.15" cy="-18" rx="38.04" ry="18"/>
<text xml:space="preserve" text-anchor="middle" x="184.15" y="-12.95" font-family="Times,serif" font-size="14.00">action1</text>
</g>
<!-- nestedAction1&#45;&gt;action1 -->
<g id="edge3" class="edge">
<title>nestedAction1&#45;&gt;action1</title>
<path fill="none" stroke="black" d="M178.23,-71.7C177.4,-63.64 177.19,-53.89 177.6,-44.98"/>
<ellipse fill="black" stroke="black" cx="177.92" cy="-40.59" rx="4" ry="4"/>
</g>
<!-- action2 -->
<g id="node5" class="node">
<title>action2</title>
<ellipse fill="none" stroke="black" cx="278.15" cy="-18" rx="38.04" ry="18"/>
<text xml:space="preserve" text-anchor="middle" x="278.15" y="-12.95" font-family="Times,serif" font-size="14.00">action2</text>
</g>
<!-- nestedAction1&#45;&gt;action2 -->
<g id="edge4" class="edge">
<title>nestedAction1&#45;&gt;action2</title>
<path fill="none" stroke="black" d="M205.95,-72.76C219.43,-62.72 236.85,-49.75 251.2,-39.07"/>
<ellipse fill="black" stroke="black" cx="254.77" cy="-36.4" rx="4" ry="4"/>
</g>
<!-- action1&#45;&gt;nestedAction1 -->
<g id="edge5" class="edge">
<title>action1&#45;&gt;nestedAction1</title>
<path fill="none" stroke="black" d="M190.04,-36.1C190.8,-43.37 191.06,-52.04 190.8,-60.24"/>
<polygon fill="black" stroke="black" points="187.31,-59.98 190.16,-70.19 194.3,-60.43 187.31,-59.98"/>
</g>
</g>
</svg>
