<?xml version="1.0" encoding="UTF-8" standalone="no"?>
<!DOCTYPE svg PUBLIC "-//W3C//DTD SVG 1.1//EN"
 "http://www.w3.org/Graphics/SVG/1.1/DTD/svg11.dtd">
<!-- Generated by graphviz version 7.0.4 (20221203.1631)
 -->
<!-- Pages: 1 -->
<svg width="365pt" height="260pt"
 viewBox="0.00 0.00 365.04 260.00" xmlns="http://www.w3.org/2000/svg" xmlns:xlink="http://www.w3.org/1999/xlink">
<g id="graph0" class="graph" transform="scale(1 1) rotate(0) translate(4 256)">
<polygon fill="white" stroke="none" points="-4,4 -4,-256 361.04,-256 361.04,4 -4,4"/>
<!-- FirstComponent -->
<g id="node1" class="node">
<title>FirstComponent</title>
<polygon fill="blue" stroke="blue" points="288.24,-252 183.24,-252 183.24,-216 288.24,-216 288.24,-252"/>
<text text-anchor="middle" x="235.74" y="-230.3" font-family="Times,serif" font-size="14.00" fill="white">FirstComponent</text>
</g>
<!-- action1 -->
<g id="node2" class="node">
<title>action1</title>
<ellipse fill="green" stroke="green" cx="235.74" cy="-162" rx="36.29" ry="18"/>
<text text-anchor="middle" x="235.74" y="-158.3" font-family="Times,serif" font-size="14.00" fill="white">action1</text>
</g>
<!-- FirstComponent&#45;&gt;action1 -->
<g id="edge1" class="edge">
<title>FirstComponent&#45;&gt;action1</title>
<path fill="none" stroke="black" d="M235.74,-215.7C235.74,-208.41 235.74,-199.73 235.74,-191.54"/>
<polygon fill="black" stroke="black" points="239.24,-191.62 235.74,-181.62 232.24,-191.62 239.24,-191.62"/>
</g>
<!-- nestedAction1 -->
<g id="node3" class="node">
<title>nestedAction1</title>
<ellipse fill="lightcyan" stroke="black" cx="177.74" cy="-90" rx="61.99" ry="18"/>
<text text-anchor="middle" x="177.74" y="-86.3" font-family="Times,serif" font-size="14.00">nestedAction1</text>
</g>
<!-- action1&#45;&gt;nestedAction1 -->
<g id="edge2" class="edge">
<title>action1&#45;&gt;nestedAction1</title>
<path fill="none" stroke="black" d="M222.58,-145.12C215.59,-136.68 206.83,-126.1 198.91,-116.55"/>
<polygon fill="black" stroke="black" points="201.7,-114.43 192.63,-108.96 196.31,-118.9 201.7,-114.43"/>
</g>
<!-- action3 -->
<g id="node4" class="node">
<title>action3</title>
<ellipse fill="none" stroke="black" cx="293.74" cy="-90" rx="36.29" ry="18"/>
<text text-anchor="middle" x="293.74" y="-86.3" font-family="Times,serif" font-size="14.00">action3</text>
</g>
<!-- action1&#45;&gt;action3 -->
<g id="edge3" class="edge">
<title>action1&#45;&gt;action3</title>
<path fill="none" stroke="black" d="M248.91,-145.12C256.17,-136.34 265.35,-125.26 273.51,-115.42"/>
<polygon fill="black" stroke="black" points="275.98,-117.92 279.67,-107.99 270.59,-113.45 275.98,-117.92"/>
</g>
<!-- nestedAction2 -->
<g id="node5" class="node">
<title>nestedAction2</title>
<ellipse fill="lightcyan" stroke="black" cx="61.74" cy="-18" rx="61.99" ry="18"/>
<text text-anchor="middle" x="61.74" y="-14.3" font-family="Times,serif" font-size="14.00">nestedAction2</text>
</g>
<!-- nestedAction1&#45;&gt;nestedAction2 -->
<g id="edge4" class="edge">
<title>nestedAction1&#45;&gt;nestedAction2</title>
<path fill="none" stroke="black" d="M151.71,-73.29C135.59,-63.56 114.68,-50.95 97.08,-40.32"/>
<polygon fill="black" stroke="black" points="99.36,-37.61 88.99,-35.44 95.74,-43.6 99.36,-37.61"/>
</g>
<!-- action2 -->
<g id="node6" class="node">
<title>action2</title>
<ellipse fill="linen" stroke="black" cx="177.74" cy="-18" rx="36.29" ry="18"/>
<text text-anchor="middle" x="177.74" y="-14.3" font-family="Times,serif" font-size="14.00">action2</text>
</g>
<!-- nestedAction1&#45;&gt;action2 -->
<g id="edge5" class="edge">
<title>nestedAction1&#45;&gt;action2</title>
<path fill="none" stroke="black" d="M177.74,-71.7C177.74,-63.64 177.74,-53.89 177.74,-44.98"/>
<ellipse fill="black" stroke="black" cx="177.74" cy="-40.6" rx="4" ry="4"/>
</g>
<!-- firstReducer -->
<g id="node7" class="node">
<title>firstReducer</title>
<polygon fill="purple" stroke="purple" points="356.83,-18 325.79,-36 263.7,-36 232.66,-18 263.7,0 325.79,0 356.83,-18"/>
<text text-anchor="middle" x="294.74" y="-14.3" font-family="Times,serif" font-size="14.00" fill="white">firstReducer</text>
</g>
<!-- action3&#45;&gt;firstReducer -->
<g id="edge6" class="edge">
<title>action3&#45;&gt;firstReducer</title>
<path fill="none" stroke="black" d="M293.99,-71.7C294.1,-64.41 294.22,-55.73 294.34,-47.54"/>
<polygon fill="black" stroke="black" points="297.84,-47.67 294.48,-37.62 290.84,-47.57 297.84,-47.67"/>
</g>
</g>
</svg>
