<?xml version="1.0" encoding="UTF-8" standalone="no"?>
<!DOCTYPE svg PUBLIC "-//W3C//DTD SVG 1.1//EN"
 "http://www.w3.org/Graphics/SVG/1.1/DTD/svg11.dtd">
<!-- Generated by graphviz version 7.0.4 (20221203.1631)
 -->
<!-- Pages: 1 -->
<svg width="249pt" height="260pt"
 viewBox="0.00 0.00 249.04 260.00" xmlns="http://www.w3.org/2000/svg" xmlns:xlink="http://www.w3.org/1999/xlink">
<g id="graph0" class="graph" transform="scale(1 1) rotate(0) translate(4 256)">
<polygon fill="white" stroke="none" points="-4,4 -4,-256 245.04,-256 245.04,4 -4,4"/>
<!-- FirstComponent -->
<g id="node1" class="node">
<title>FirstComponent</title>
<polygon fill="blue" stroke="blue" points="172.24,-252 67.24,-252 67.24,-216 172.24,-216 172.24,-252"/>
<text text-anchor="middle" x="119.74" y="-230.3" font-family="Times,serif" font-size="14.00" fill="white">FirstComponent</text>
</g>
<!-- action1 -->
<g id="node2" class="node">
<title>action1</title>
<ellipse fill="none" stroke="black" cx="119.74" cy="-162" rx="36.29" ry="18"/>
<text text-anchor="middle" x="119.74" y="-158.3" font-family="Times,serif" font-size="14.00">action1</text>
</g>
<!-- FirstComponent&#45;&gt;action1 -->
<g id="edge1" class="edge">
<title>FirstComponent&#45;&gt;action1</title>
<path fill="none" stroke="black" d="M119.74,-215.7C119.74,-208.41 119.74,-199.73 119.74,-191.54"/>
<polygon fill="black" stroke="black" points="123.24,-191.62 119.74,-181.62 116.24,-191.62 123.24,-191.62"/>
</g>
<!-- nestedAction1 -->
<g id="node3" class="node">
<title>nestedAction1</title>
<ellipse fill="lightcyan" stroke="black" cx="61.74" cy="-90" rx="61.99" ry="18"/>
<text text-anchor="middle" x="61.74" y="-86.3" font-family="Times,serif" font-size="14.00">nestedAction1</text>
</g>
<!-- action1&#45;&gt;nestedAction1 -->
<g id="edge2" class="edge">
<title>action1&#45;&gt;nestedAction1</title>
<path fill="none" stroke="black" d="M106.58,-145.12C99.59,-136.68 90.83,-126.1 82.91,-116.55"/>
<polygon fill="black" stroke="black" points="85.7,-114.43 76.63,-108.96 80.31,-118.9 85.7,-114.43"/>
</g>
<!-- action3 -->
<g id="node4" class="node">
<title>action3</title>
<ellipse fill="green" stroke="green" cx="177.74" cy="-90" rx="36.29" ry="18"/>
<text text-anchor="middle" x="177.74" y="-86.3" font-family="Times,serif" font-size="14.00" fill="white">action3</text>
</g>
<!-- action1&#45;&gt;action3 -->
<g id="edge3" class="edge">
<title>action1&#45;&gt;action3</title>
<path fill="none" stroke="black" d="M132.91,-145.12C140.17,-136.34 149.35,-125.26 157.51,-115.42"/>
<polygon fill="black" stroke="black" points="159.98,-117.92 163.67,-107.99 154.59,-113.45 159.98,-117.92"/>
</g>
<!-- action2 -->
<g id="node5" class="node">
<title>action2</title>
<ellipse fill="linen" stroke="black" cx="61.74" cy="-18" rx="36.29" ry="18"/>
<text text-anchor="middle" x="61.74" y="-14.3" font-family="Times,serif" font-size="14.00">action2</text>
</g>
<!-- nestedAction1&#45;&gt;action2 -->
<g id="edge4" class="edge">
<title>nestedAction1&#45;&gt;action2</title>
<path fill="none" stroke="black" d="M61.74,-71.7C61.74,-63.64 61.74,-53.89 61.74,-44.98"/>
<ellipse fill="black" stroke="black" cx="61.74" cy="-40.6" rx="4" ry="4"/>
</g>
<!-- firstReducer -->
<g id="node6" class="node">
<title>firstReducer</title>
<polygon fill="purple" stroke="purple" points="240.83,-18 209.79,-36 147.7,-36 116.66,-18 147.7,0 209.79,0 240.83,-18"/>
<text text-anchor="middle" x="178.74" y="-14.3" font-family="Times,serif" font-size="14.00" fill="white">firstReducer</text>
</g>
<!-- action3&#45;&gt;firstReducer -->
<g id="edge5" class="edge">
<title>action3&#45;&gt;firstReducer</title>
<path fill="none" stroke="black" d="M177.99,-71.7C178.1,-64.41 178.22,-55.73 178.34,-47.54"/>
<polygon fill="black" stroke="black" points="181.84,-47.67 178.48,-37.62 174.84,-47.57 181.84,-47.67"/>
</g>
</g>
</svg>
