<?xml version="1.0" encoding="UTF-8" standalone="no"?>
<!DOCTYPE svg PUBLIC "-//W3C//DTD SVG 1.1//EN"
 "http://www.w3.org/Graphics/SVG/1.1/DTD/svg11.dtd">
<!-- Generated by graphviz version 14.0.2 (20251019.1705)
 -->
<!-- Pages: 1 -->
<svg width="205pt" height="260pt"
 viewBox="0.00 0.00 205.00 260.00" xmlns="http://www.w3.org/2000/svg" xmlns:xlink="http://www.w3.org/1999/xlink">
<g id="graph0" class="graph" transform="scale(1 1) rotate(0) translate(4 256)">
<polygon fill="white" stroke="none" points="-4,4 -4,-256 201.25,-256 201.25,4 -4,4"/>
<!-- FirstComponent -->
<g id="node1" class="node">
<title>FirstComponent</title>
<polygon fill="blue" stroke="blue" points="137.29,-252 32.79,-252 32.79,-216 137.29,-216 137.29,-252"/>
<text xml:space="preserve" text-anchor="middle" x="85.04" y="-228.95" font-family="Times,serif" font-size="14.00" fill="white">FirstComponent</text>
</g>
<!-- action1 -->
<g id="node2" class="node">
<title>action1</title>
<ellipse fill="#007000" stroke="green" cx="85.04" cy="-162" rx="38.04" ry="18"/>
<text xml:space="preserve" text-anchor="middle" x="85.04" y="-156.95" font-family="Times,serif" font-size="14.00" fill="white">action1</text>
</g>
<!-- FirstComponent&#45;&gt;action1 -->
<g id="edge1" class="edge">
<title>FirstComponent&#45;&gt;action1</title>
<path fill="none" stroke="black" d="M85.04,-215.7C85.04,-208.41 85.04,-199.73 85.04,-191.54"/>
<polygon fill="black" stroke="black" points="88.54,-191.62 85.04,-181.62 81.54,-191.62 88.54,-191.62"/>
</g>
<!-- action2 -->
<g id="node3" class="node">
<title>action2</title>
<ellipse fill="linen" stroke="black" cx="38.04" cy="-90" rx="38.04" ry="18"/>
<text xml:space="preserve" text-anchor="middle" x="38.04" y="-84.95" font-family="Times,serif" font-size="14.00">action2</text>
</g>
<!-- action1&#45;&gt;action2 -->
<g id="edge2" class="edge">
<title>action1&#45;&gt;action2</title>
<path fill="none" stroke="black" d="M73.91,-144.41C68.4,-136.22 61.64,-126.14 55.47,-116.95"/>
<polygon fill="black" stroke="black" points="58.43,-115.08 49.95,-108.73 52.62,-118.98 58.43,-115.08"/>
</g>
<!-- action3 -->
<g id="node4" class="node">
<title>action3</title>
<ellipse fill="linen" stroke="black" cx="132.04" cy="-90" rx="38.04" ry="18"/>
<text xml:space="preserve" text-anchor="middle" x="132.04" y="-84.95" font-family="Times,serif" font-size="14.00">action3</text>
</g>
<!-- action1&#45;&gt;action3 -->
<g id="edge3" class="edge">
<title>action1&#45;&gt;action3</title>
<path fill="none" stroke="black" d="M96.18,-144.41C101.68,-136.22 108.45,-126.14 114.62,-116.95"/>
<polygon fill="black" stroke="black" points="117.47,-118.98 120.14,-108.73 111.66,-115.08 117.47,-118.98"/>
</g>
<!-- firstReducer -->
<g id="node5" class="node">
<title>firstReducer</title>
<polygon fill="purple" stroke="purple" points="197.25,-18 164.65,-36 99.44,-36 66.84,-18 99.44,0 164.65,0 197.25,-18"/>
<text xml:space="preserve" text-anchor="middle" x="132.04" y="-12.95" font-family="Times,serif" font-size="14.00" fill="white">firstReducer</text>
</g>
<!-- action3&#45;&gt;firstReducer -->
<g id="edge4" class="edge">
<title>action3&#45;&gt;firstReducer</title>
<path fill="none" stroke="black" d="M132.04,-71.7C132.04,-64.41 132.04,-55.73 132.04,-47.54"/>
<polygon fill="black" stroke="black" points="135.54,-47.62 132.04,-37.62 128.54,-47.62 135.54,-47.62"/>
</g>
</g>
</svg>
