<?xml version="1.0" encoding="UTF-8" standalone="no"?>
<!DOCTYPE svg PUBLIC "-//W3C//DTD SVG 1.1//EN"
 "http://www.w3.org/Graphics/SVG/1.1/DTD/svg11.dtd">
<!-- Generated by graphviz version 14.0.2 (20251019.1705)
 -->
<!-- Pages: 1 -->
<svg width="138pt" height="260pt"
 viewBox="0.00 0.00 138.00 260.00" xmlns="http://www.w3.org/2000/svg" xmlns:xlink="http://www.w3.org/1999/xlink">
<g id="graph0" class="graph" transform="scale(1 1) rotate(0) translate(4 256)">
<polygon fill="white" stroke="none" points="-4,4 -4,-256 134.41,-256 134.41,4 -4,4"/>
<!-- FirstComponent -->
<g id="node1" class="node">
<title>FirstComponent</title>
<polygon fill="blue" stroke="blue" points="117.46,-252 12.96,-252 12.96,-216 117.46,-216 117.46,-252"/>
<text xml:space="preserve" text-anchor="middle" x="65.21" y="-228.95" font-family="Times,serif" font-size="14.00" fill="white">FirstComponent</text>
</g>
<!-- action1 -->
<g id="node2" class="node">
<title>action1</title>
<ellipse fill="linen" stroke="black" cx="65.21" cy="-162" rx="38.04" ry="18"/>
<text xml:space="preserve" text-anchor="middle" x="65.21" y="-156.95" font-family="Times,serif" font-size="14.00">action1</text>
</g>
<!-- FirstComponent&#45;&gt;action1 -->
<g id="edge1" class="edge">
<title>FirstComponent&#45;&gt;action1</title>
<path fill="none" stroke="black" d="M65.21,-215.7C65.21,-208.41 65.21,-199.73 65.21,-191.54"/>
<polygon fill="black" stroke="black" points="68.71,-191.62 65.21,-181.62 61.71,-191.62 68.71,-191.62"/>
</g>
<!-- action3 -->
<g id="node3" class="node">
<title>action3</title>
<ellipse fill="#007000" stroke="green" cx="65.21" cy="-90" rx="38.04" ry="18"/>
<text xml:space="preserve" text-anchor="middle" x="65.21" y="-84.95" font-family="Times,serif" font-size="14.00" fill="white">action3</text>
</g>
<!-- action1&#45;&gt;action3 -->
<g id="edge3" class="edge">
<title>action1&#45;&gt;action3</title>
<path fill="none" stroke="black" d="M65.21,-143.7C65.21,-136.41 65.21,-127.73 65.21,-119.54"/>
<polygon fill="black" stroke="black" points="68.71,-119.62 65.21,-109.62 61.71,-119.62 68.71,-119.62"/>
</g>
<!-- firstReducer -->
<g id="node4" class="node">
<title>firstReducer</title>
<polygon fill="purple" stroke="purple" points="130.41,-18 97.81,-36 32.6,-36 0,-18 32.6,0 97.81,0 130.41,-18"/>
<text xml:space="preserve" text-anchor="middle" x="65.21" y="-12.95" font-family="Times,serif" font-size="14.00" fill="white">firstReducer</text>
</g>
<!-- action3&#45;&gt;firstReducer -->
<g id="edge2" class="edge">
<title>action3&#45;&gt;firstReducer</title>
<path fill="none" stroke="black" d="M65.21,-71.7C65.21,-64.41 65.21,-55.73 65.21,-47.54"/>
<polygon fill="black" stroke="black" points="68.71,-47.62 65.21,-37.62 61.71,-47.62 68.71,-47.62"/>
</g>
</g>
</svg>
