<?xml version="1.0" encoding="UTF-8" standalone="no"?>
<!DOCTYPE svg PUBLIC "-//W3C//DTD SVG 1.1//EN"
 "http://www.w3.org/Graphics/SVG/1.1/DTD/svg11.dtd">
<!-- Generated by graphviz version 14.0.2 (20251019.1705)
 -->
<!-- Pages: 1 -->
<svg width="113pt" height="188pt"
 viewBox="0.00 0.00 113.00 188.00" xmlns="http://www.w3.org/2000/svg" xmlns:xlink="http://www.w3.org/1999/xlink">
<g id="graph0" class="graph" transform="scale(1 1) rotate(0) translate(4 184)">
<polygon fill="white" stroke="none" points="-4,4 -4,-184 108.5,-184 108.5,4 -4,4"/>
<!-- FirstComponent -->
<g id="node1" class="node">
<title>FirstComponent</title>
<polygon fill="blue" stroke="blue" points="104.5,-180 0,-180 0,-144 104.5,-144 104.5,-180"/>
<text xml:space="preserve" text-anchor="middle" x="52.25" y="-156.95" font-family="Times,serif" font-size="14.00" fill="white">FirstComponent</text>
</g>
<!-- action1 -->
<g id="node2" class="node">
<title>action1</title>
<ellipse fill="#007000" stroke="green" cx="52.25" cy="-90" rx="38.04" ry="18"/>
<text xml:space="preserve" text-anchor="middle" x="52.25" y="-84.95" font-family="Times,serif" font-size="14.00" fill="white">action1</text>
</g>
<!-- FirstComponent&#45;&gt;action1 -->
<g id="edge1" class="edge">
<title>FirstComponent&#45;&gt;action1</title>
<path fill="none" stroke="black" d="M52.25,-143.7C52.25,-136.41 52.25,-127.73 52.25,-119.54"/>
<polygon fill="black" stroke="black" points="55.75,-119.62 52.25,-109.62 48.75,-119.62 55.75,-119.62"/>
</g>
<!-- action2 -->
<g id="node3" class="node">
<title>action2</title>
<ellipse fill="none" stroke="black" cx="52.25" cy="-18" rx="38.04" ry="18"/>
<text xml:space="preserve" text-anchor="middle" x="52.25" y="-12.95" font-family="Times,serif" font-size="14.00">action2</text>
</g>
<!-- action1&#45;&gt;action2 -->
<g id="edge2" class="edge">
<title>action1&#45;&gt;action2</title>
<path fill="none" stroke="black" d="M52.25,-71.7C52.25,-64.41 52.25,-55.73 52.25,-47.54"/>
<polygon fill="black" stroke="black" points="55.75,-47.62 52.25,-37.62 48.75,-47.62 55.75,-47.62"/>
</g>
</g>
</svg>
