<?xml version="1.0" encoding="UTF-8" standalone="no"?>
<!DOCTYPE svg PUBLIC "-//W3C//DTD SVG 1.1//EN"
 "http://www.w3.org/Graphics/SVG/1.1/DTD/svg11.dtd">
<!-- Generated by graphviz version 7.0.4 (20221203.1631)
 -->
<!-- Pages: 1 -->
<svg width="198pt" height="260pt"
 viewBox="0.00 0.00 197.69 260.00" xmlns="http://www.w3.org/2000/svg" xmlns:xlink="http://www.w3.org/1999/xlink">
<g id="graph0" class="graph" transform="scale(1 1) rotate(0) translate(4 256)">
<polygon fill="white" stroke="none" points="-4,4 -4,-256 193.69,-256 193.69,4 -4,4"/>
<!-- FirstComponent -->
<g id="node1" class="node">
<title>FirstComponent</title>
<polygon fill="blue" stroke="blue" points="133.9,-252 28.9,-252 28.9,-216 133.9,-216 133.9,-252"/>
<text text-anchor="middle" x="81.4" y="-230.3" font-family="Times,serif" font-size="14.00" fill="white">FirstComponent</text>
</g>
<!-- action1 -->
<g id="node2" class="node">
<title>action1</title>
<ellipse fill="none" stroke="black" cx="81.4" cy="-162" rx="36.29" ry="18"/>
<text text-anchor="middle" x="81.4" y="-158.3" font-family="Times,serif" font-size="14.00">action1</text>
</g>
<!-- FirstComponent&#45;&gt;action1 -->
<g id="edge1" class="edge">
<title>FirstComponent&#45;&gt;action1</title>
<path fill="none" stroke="black" d="M81.4,-215.7C81.4,-208.41 81.4,-199.73 81.4,-191.54"/>
<polygon fill="black" stroke="black" points="84.9,-191.62 81.4,-181.62 77.9,-191.62 84.9,-191.62"/>
</g>
<!-- action2 -->
<g id="node3" class="node">
<title>action2</title>
<ellipse fill="none" stroke="black" cx="36.4" cy="-90" rx="36.29" ry="18"/>
<text text-anchor="middle" x="36.4" y="-86.3" font-family="Times,serif" font-size="14.00">action2</text>
</g>
<!-- action1&#45;&gt;action2 -->
<g id="edge2" class="edge">
<title>action1&#45;&gt;action2</title>
<path fill="none" stroke="black" d="M70.73,-144.41C65.46,-136.22 58.99,-126.14 53.08,-116.95"/>
<polygon fill="black" stroke="black" points="56.15,-115.26 47.8,-108.74 50.27,-119.05 56.15,-115.26"/>
</g>
<!-- action3 -->
<g id="node4" class="node">
<title>action3</title>
<ellipse fill="green" stroke="green" cx="127.4" cy="-90" rx="36.29" ry="18"/>
<text text-anchor="middle" x="127.4" y="-86.3" font-family="Times,serif" font-size="14.00" fill="white">action3</text>
</g>
<!-- action1&#45;&gt;action3 -->
<g id="edge3" class="edge">
<title>action1&#45;&gt;action3</title>
<path fill="none" stroke="black" d="M92.3,-144.41C97.68,-136.22 104.31,-126.14 110.34,-116.95"/>
<polygon fill="black" stroke="black" points="113.18,-119.01 115.74,-108.73 107.33,-115.17 113.18,-119.01"/>
</g>
<!-- firstReducer -->
<g id="node5" class="node">
<title>firstReducer</title>
<polygon fill="purple" stroke="purple" points="189.48,-18 158.44,-36 96.36,-36 65.31,-18 96.36,0 158.44,0 189.48,-18"/>
<text text-anchor="middle" x="127.4" y="-14.3" font-family="Times,serif" font-size="14.00" fill="white">firstReducer</text>
</g>
<!-- action3&#45;&gt;firstReducer -->
<g id="edge4" class="edge">
<title>action3&#45;&gt;firstReducer</title>
<path fill="none" stroke="black" d="M127.4,-71.7C127.4,-64.41 127.4,-55.73 127.4,-47.54"/>
<polygon fill="black" stroke="black" points="130.9,-47.62 127.4,-37.62 123.9,-47.62 130.9,-47.62"/>
</g>
</g>
</svg>
