<?xml version="1.0" encoding="UTF-8" standalone="no"?>
<!DOCTYPE svg PUBLIC "-//W3C//DTD SVG 1.1//EN"
 "http://www.w3.org/Graphics/SVG/1.1/DTD/svg11.dtd">
<!-- Generated by graphviz version 14.0.2 (20251019.1705)
 -->
<!-- Pages: 1 -->
<svg width="218pt" height="116pt"
 viewBox="0.00 0.00 218.00 116.00" xmlns="http://www.w3.org/2000/svg" xmlns:xlink="http://www.w3.org/1999/xlink">
<g id="graph0" class="graph" transform="scale(1 1) rotate(0) translate(4 112)">
<polygon fill="white" stroke="none" points="-4,4 -4,-112 213.8,-112 213.8,4 -4,4"/>
<!-- actionA -->
<g id="node1" class="node">
<title>actionA</title>
<ellipse fill="linen" stroke="black" cx="40.09" cy="-90" rx="40.09" ry="18"/>
<text xml:space="preserve" text-anchor="middle" x="40.09" y="-84.95" font-family="Times,serif" font-size="14.00">actionA</text>
</g>
<!-- actionB -->
<g id="node2" class="node">
<title>actionB</title>
<ellipse fill="linen" stroke="black" cx="138.09" cy="-90" rx="39.58" ry="18"/>
<text xml:space="preserve" text-anchor="middle" x="138.09" y="-84.95" font-family="Times,serif" font-size="14.00">actionB</text>
</g>
<!-- case4Reducer -->
<g id="node3" class="node">
<title>case4Reducer</title>
<polygon fill="purple" stroke="purple" points="209.8,-18 173.94,-36 102.24,-36 66.39,-18 102.24,0 173.94,0 209.8,-18"/>
<text xml:space="preserve" text-anchor="middle" x="138.09" y="-12.95" font-family="Times,serif" font-size="14.00" fill="white">case4Reducer</text>
</g>
<!-- actionB&#45;&gt;case4Reducer -->
<g id="edge1" class="edge">
<title>actionB&#45;&gt;case4Reducer</title>
<path fill="none" stroke="black" d="M138.09,-71.7C138.09,-64.41 138.09,-55.73 138.09,-47.54"/>
<polygon fill="black" stroke="black" points="141.59,-47.62 138.09,-37.62 134.59,-47.62 141.59,-47.62"/>
</g>
</g>
</svg>
