<?xml version="1.0" encoding="UTF-8" standalone="no"?>
<!DOCTYPE svg PUBLIC "-//W3C//DTD SVG 1.1//EN"
 "http://www.w3.org/Graphics/SVG/1.1/DTD/svg11.dtd">
<!-- Generated by graphviz version 14.0.2 (20251019.1705)
 -->
<!-- Pages: 1 -->
<svg width="151pt" height="260pt"
 viewBox="0.00 0.00 151.00 260.00" xmlns="http://www.w3.org/2000/svg" xmlns:xlink="http://www.w3.org/1999/xlink">
<g id="graph0" class="graph" transform="scale(1 1) rotate(0) translate(4 256)">
<polygon fill="white" stroke="none" points="-4,4 -4,-256 147.41,-256 147.41,4 -4,4"/>
<!-- Case4Component -->
<g id="node1" class="node">
<title>Case4Component</title>
<polygon fill="blue" stroke="blue" points="128.08,-252 15.33,-252 15.33,-216 128.08,-216 128.08,-252"/>
<text xml:space="preserve" text-anchor="middle" x="71.71" y="-228.95" font-family="Times,serif" font-size="14.00" fill="white">Case4Component</text>
</g>
<!-- actionA -->
<g id="node2" class="node">
<title>actionA</title>
<ellipse fill="linen" stroke="black" cx="71.71" cy="-162" rx="40.09" ry="18"/>
<text xml:space="preserve" text-anchor="middle" x="71.71" y="-156.95" font-family="Times,serif" font-size="14.00">actionA</text>
</g>
<!-- Case4Component&#45;&gt;actionA -->
<g id="edge1" class="edge">
<title>Case4Component&#45;&gt;actionA</title>
<path fill="none" stroke="black" d="M71.71,-215.7C71.71,-208.41 71.71,-199.73 71.71,-191.54"/>
<polygon fill="black" stroke="black" points="75.21,-191.62 71.71,-181.62 68.21,-191.62 75.21,-191.62"/>
</g>
<!-- actionB -->
<g id="node3" class="node">
<title>actionB</title>
<ellipse fill="linen" stroke="black" cx="71.71" cy="-90" rx="39.58" ry="18"/>
<text xml:space="preserve" text-anchor="middle" x="71.71" y="-84.95" font-family="Times,serif" font-size="14.00">actionB</text>
</g>
<!-- actionA&#45;&gt;actionB -->
<g id="edge2" class="edge">
<title>actionA&#45;&gt;actionB</title>
<path fill="none" stroke="black" d="M71.71,-143.7C71.71,-136.41 71.71,-127.73 71.71,-119.54"/>
<polygon fill="black" stroke="black" points="75.21,-119.62 71.71,-109.62 68.21,-119.62 75.21,-119.62"/>
</g>
<!-- case4Reducer -->
<g id="node4" class="node">
<title>case4Reducer</title>
<polygon fill="purple" stroke="purple" points="143.41,-18 107.56,-36 35.85,-36 0,-18 35.85,0 107.56,0 143.41,-18"/>
<text xml:space="preserve" text-anchor="middle" x="71.71" y="-12.95" font-family="Times,serif" font-size="14.00" fill="white">case4Reducer</text>
</g>
<!-- actionB&#45;&gt;case4Reducer -->
<g id="edge3" class="edge">
<title>actionB&#45;&gt;case4Reducer</title>
<path fill="none" stroke="black" d="M71.71,-71.7C71.71,-64.41 71.71,-55.73 71.71,-47.54"/>
<polygon fill="black" stroke="black" points="75.21,-47.62 71.71,-37.62 68.21,-47.62 75.21,-47.62"/>
</g>
</g>
</svg>
