<?xml version="1.0" encoding="UTF-8" standalone="no"?>
<!DOCTYPE svg PUBLIC "-//W3C//DTD SVG 1.1//EN"
 "http://www.w3.org/Graphics/SVG/1.1/DTD/svg11.dtd">
<!-- Generated by graphviz version 14.0.2 (20251019.1705)
 -->
<!-- Pages: 1 -->
<svg width="158pt" height="260pt"
 viewBox="0.00 0.00 158.00 260.00" xmlns="http://www.w3.org/2000/svg" xmlns:xlink="http://www.w3.org/1999/xlink">
<g id="graph0" class="graph" transform="scale(1 1) rotate(0) translate(4 256)">
<polygon fill="white" stroke="none" points="-4,4 -4,-256 153.79,-256 153.79,4 -4,4"/>
<!-- Case4Component -->
<g id="node1" class="node">
<title>Case4Component</title>
<polygon fill="blue" stroke="blue" points="131.27,-252 18.52,-252 18.52,-216 131.27,-216 131.27,-252"/>
<text xml:space="preserve" text-anchor="middle" x="74.89" y="-228.95" font-family="Times,serif" font-size="14.00" fill="white">Case4Component</text>
</g>
<!-- exportedActionA -->
<g id="node3" class="node">
<title>exportedActionA</title>
<ellipse fill="#007000" stroke="green" cx="74.89" cy="-162" rx="74.89" ry="18"/>
<text xml:space="preserve" text-anchor="middle" x="74.89" y="-156.95" font-family="Times,serif" font-size="14.00" fill="white">exportedActionA</text>
</g>
<!-- Case4Component&#45;&gt;exportedActionA -->
<g id="edge1" class="edge">
<title>Case4Component&#45;&gt;exportedActionA</title>
<path fill="none" stroke="black" d="M74.89,-215.7C74.89,-208.41 74.89,-199.73 74.89,-191.54"/>
<polygon fill="black" stroke="black" points="78.39,-191.62 74.89,-181.62 71.39,-191.62 78.39,-191.62"/>
</g>
<!-- actionB -->
<g id="node2" class="node">
<title>actionB</title>
<ellipse fill="linen" stroke="black" cx="74.89" cy="-90" rx="39.58" ry="18"/>
<text xml:space="preserve" text-anchor="middle" x="74.89" y="-84.95" font-family="Times,serif" font-size="14.00">actionB</text>
</g>
<!-- case4Reducer -->
<g id="node4" class="node">
<title>case4Reducer</title>
<polygon fill="purple" stroke="purple" points="146.6,-18 110.75,-36 39.04,-36 3.19,-18 39.04,0 110.75,0 146.6,-18"/>
<text xml:space="preserve" text-anchor="middle" x="74.89" y="-12.95" font-family="Times,serif" font-size="14.00" fill="white">case4Reducer</text>
</g>
<!-- actionB&#45;&gt;case4Reducer -->
<g id="edge3" class="edge">
<title>actionB&#45;&gt;case4Reducer</title>
<path fill="none" stroke="black" d="M74.89,-71.7C74.89,-64.41 74.89,-55.73 74.89,-47.54"/>
<polygon fill="black" stroke="black" points="78.39,-47.62 74.89,-37.62 71.39,-47.62 78.39,-47.62"/>
</g>
<!-- exportedActionA&#45;&gt;actionB -->
<g id="edge2" class="edge">
<title>exportedActionA&#45;&gt;actionB</title>
<path fill="none" stroke="black" d="M74.89,-143.7C74.89,-136.41 74.89,-127.73 74.89,-119.54"/>
<polygon fill="black" stroke="black" points="78.39,-119.62 74.89,-109.62 71.39,-119.62 78.39,-119.62"/>
</g>
</g>
</svg>
