<?xml version="1.0" encoding="UTF-8" standalone="no"?>
<!DOCTYPE svg PUBLIC "-//W3C//DTD SVG 1.1//EN"
 "http://www.w3.org/Graphics/SVG/1.1/DTD/svg11.dtd">
<!-- Generated by graphviz version 7.0.1 (20221109.1506)
 -->
<!-- Pages: 1 -->
<svg width="502pt" height="260pt"
 viewBox="0.00 0.00 502.00 260.00" xmlns="http://www.w3.org/2000/svg" xmlns:xlink="http://www.w3.org/1999/xlink">
<g id="graph0" class="graph" transform="scale(1 1) rotate(0) translate(4 256)">
<polygon fill="white" stroke="none" points="-4,4 -4,-256 498,-256 498,4 -4,4"/>
<!-- MainAction -->
<g id="node1" class="node">
<title>MainAction</title>
<ellipse fill="green" stroke="green" cx="111.5" cy="-90" rx="53.89" ry="18"/>
<text text-anchor="middle" x="111.5" y="-86.3" font-family="Times,serif" font-size="14.00" fill="white">MainAction</text>
</g>
<!-- Component1 -->
<g id="node2" class="node">
<title>Component1</title>
<polygon fill="blue" stroke="blue" points="494,-180 407,-180 407,-144 494,-144 494,-180"/>
<text text-anchor="middle" x="450.5" y="-158.3" font-family="Times,serif" font-size="14.00" fill="white">Component1</text>
</g>
<!-- action1 -->
<g id="node3" class="node">
<title>action1</title>
<ellipse fill="none" stroke="black" cx="325.5" cy="-90" rx="36.29" ry="18"/>
<text text-anchor="middle" x="325.5" y="-86.3" font-family="Times,serif" font-size="14.00">action1</text>
</g>
<!-- Component1&#45;&gt;action1 -->
<g id="edge1" class="edge">
<title>Component1&#45;&gt;action1</title>
<path fill="none" stroke="black" d="M419.28,-143.52C400.85,-133.2 377.54,-120.14 358.77,-109.63"/>
<polygon fill="black" stroke="black" points="360.62,-106.66 350.19,-104.82 357.2,-112.76 360.62,-106.66"/>
</g>
<!-- Reducer2 -->
<g id="node7" class="node">
<title>Reducer2</title>
<polygon fill="purple" stroke="purple" points="376.57,-18 351.03,-36 299.97,-36 274.43,-18 299.97,0 351.03,0 376.57,-18"/>
<text text-anchor="middle" x="325.5" y="-14.3" font-family="Times,serif" font-size="14.00" fill="white">Reducer2</text>
</g>
<!-- action1&#45;&gt;Reducer2 -->
<g id="edge6" class="edge">
<title>action1&#45;&gt;Reducer2</title>
<path fill="none" stroke="black" d="M325.5,-71.7C325.5,-64.41 325.5,-55.73 325.5,-47.54"/>
<polygon fill="black" stroke="black" points="329,-47.62 325.5,-37.62 322,-47.62 329,-47.62"/>
</g>
<!-- Component2 -->
<g id="node4" class="node">
<title>Component2</title>
<polygon fill="blue" stroke="blue" points="87,-180 0,-180 0,-144 87,-144 87,-180"/>
<text text-anchor="middle" x="43.5" y="-158.3" font-family="Times,serif" font-size="14.00" fill="white">Component2</text>
</g>
<!-- Component2&#45;&gt;MainAction -->
<g id="edge2" class="edge">
<title>Component2&#45;&gt;MainAction</title>
<path fill="none" stroke="black" d="M60.31,-143.7C68.5,-135.27 78.5,-124.97 87.47,-115.73"/>
<polygon fill="black" stroke="black" points="89.84,-118.32 94.3,-108.71 84.82,-113.44 89.84,-118.32"/>
</g>
<!-- Reducer1 -->
<g id="node5" class="node">
<title>Reducer1</title>
<polygon fill="purple" stroke="purple" points="207.57,-162 182.03,-180 130.97,-180 105.43,-162 130.97,-144 182.03,-144 207.57,-162"/>
<text text-anchor="middle" x="156.5" y="-158.3" font-family="Times,serif" font-size="14.00" fill="white">Reducer1</text>
</g>
<!-- action5 -->
<g id="node6" class="node">
<title>action5</title>
<ellipse fill="none" stroke="black" cx="261.5" cy="-234" rx="36.29" ry="18"/>
<text text-anchor="middle" x="261.5" y="-230.3" font-family="Times,serif" font-size="14.00">action5</text>
</g>
<!-- action5&#45;&gt;Reducer1 -->
<g id="edge3" class="edge">
<title>action5&#45;&gt;Reducer1</title>
<path fill="none" stroke="black" d="M240.5,-219C226.5,-209.66 207.74,-197.16 191.5,-186.34"/>
<polygon fill="black" stroke="black" points="193.81,-183.67 183.55,-181.03 189.93,-189.49 193.81,-183.67"/>
</g>
<!-- action2 -->
<g id="node9" class="node">
<title>action2</title>
<ellipse fill="none" stroke="black" cx="261.5" cy="-162" rx="36.29" ry="18"/>
<text text-anchor="middle" x="261.5" y="-158.3" font-family="Times,serif" font-size="14.00">action2</text>
</g>
<!-- action5&#45;&gt;action2 -->
<g id="edge12" class="edge">
<title>action5&#45;&gt;action2</title>
<path fill="none" stroke="black" d="M261.5,-215.7C261.5,-208.41 261.5,-199.73 261.5,-191.54"/>
<polygon fill="black" stroke="black" points="265,-191.62 261.5,-181.62 258,-191.62 265,-191.62"/>
</g>
<!-- action4 -->
<g id="node11" class="node">
<title>action4</title>
<ellipse fill="none" stroke="black" cx="352.5" cy="-162" rx="36.29" ry="18"/>
<text text-anchor="middle" x="352.5" y="-158.3" font-family="Times,serif" font-size="14.00">action4</text>
</g>
<!-- action5&#45;&gt;action4 -->
<g id="edge10" class="edge">
<title>action5&#45;&gt;action4</title>
<path fill="none" stroke="black" d="M280.36,-218.5C293.08,-208.71 310.1,-195.61 324.41,-184.6"/>
<polygon fill="black" stroke="black" points="326.36,-187.52 332.16,-178.65 322.1,-181.97 326.36,-187.52"/>
</g>
<!-- action6 -->
<g id="node8" class="node">
<title>action6</title>
<ellipse fill="none" stroke="black" cx="416.5" cy="-90" rx="36.29" ry="18"/>
<text text-anchor="middle" x="416.5" y="-86.3" font-family="Times,serif" font-size="14.00">action6</text>
</g>
<!-- action6&#45;&gt;Reducer2 -->
<g id="edge4" class="edge">
<title>action6&#45;&gt;Reducer2</title>
<path fill="none" stroke="black" d="M397.64,-74.5C385.97,-65.52 370.68,-53.76 357.19,-43.37"/>
<polygon fill="black" stroke="black" points="359.46,-40.7 349.4,-37.38 355.19,-46.25 359.46,-40.7"/>
</g>
<!-- action2&#45;&gt;MainAction -->
<g id="edge8" class="edge">
<title>action2&#45;&gt;MainAction</title>
<path fill="none" stroke="black" d="M235.71,-148.97C212.72,-138.23 178.66,-122.34 152.03,-109.91"/>
<polygon fill="black" stroke="black" points="153.77,-106.86 143.23,-105.81 150.81,-113.21 153.77,-106.86"/>
</g>
<!-- action2&#45;&gt;action1 -->
<g id="edge7" class="edge">
<title>action2&#45;&gt;action1</title>
<path fill="none" stroke="black" d="M276.02,-145.12C284.12,-136.26 294.38,-125.04 303.45,-115.12"/>
<polygon fill="black" stroke="black" points="305.85,-117.68 310.01,-107.94 300.68,-112.96 305.85,-117.68"/>
</g>
<!-- action2&#45;&gt;Reducer2 -->
<g id="edge5" class="edge">
<title>action2&#45;&gt;Reducer2</title>
<path fill="none" stroke="black" d="M262.67,-143.79C264.48,-125.24 269.06,-95.25 280.5,-72 285.35,-62.14 292.45,-52.58 299.57,-44.37"/>
<polygon fill="black" stroke="black" points="302.02,-46.88 306.19,-37.15 296.86,-42.15 302.02,-46.88"/>
</g>
<!-- action3 -->
<g id="node10" class="node">
<title>action3</title>
<ellipse fill="none" stroke="black" cx="352.5" cy="-234" rx="36.29" ry="18"/>
<text text-anchor="middle" x="352.5" y="-230.3" font-family="Times,serif" font-size="14.00">action3</text>
</g>
<!-- action3&#45;&gt;action2 -->
<g id="edge11" class="edge">
<title>action3&#45;&gt;action2</title>
<path fill="none" stroke="black" d="M333.64,-218.5C320.92,-208.71 303.9,-195.61 289.59,-184.6"/>
<polygon fill="black" stroke="black" points="291.9,-181.97 281.84,-178.65 287.64,-187.52 291.9,-181.97"/>
</g>
<!-- action3&#45;&gt;action4 -->
<g id="edge9" class="edge">
<title>action3&#45;&gt;action4</title>
<path fill="none" stroke="black" d="M352.5,-215.7C352.5,-208.41 352.5,-199.73 352.5,-191.54"/>
<polygon fill="black" stroke="black" points="356,-191.62 352.5,-181.62 349,-191.62 356,-191.62"/>
</g>
</g>
</svg>
