<?xml version="1.0" encoding="UTF-8" standalone="no"?>
<!DOCTYPE svg PUBLIC "-//W3C//DTD SVG 1.1//EN"
 "http://www.w3.org/Graphics/SVG/1.1/DTD/svg11.dtd">
<!-- Generated by graphviz version 7.0.1 (20221109.1506)
 -->
<!-- Pages: 1 -->
<svg width="551pt" height="260pt"
 viewBox="0.00 0.00 551.43 260.00" xmlns="http://www.w3.org/2000/svg" xmlns:xlink="http://www.w3.org/1999/xlink">
<g id="graph0" class="graph" transform="scale(1 1) rotate(0) translate(4 256)">
<polygon fill="white" stroke="none" points="-4,4 -4,-256 547.43,-256 547.43,4 -4,4"/>
<!-- Component1 -->
<g id="node1" class="node">
<title>Component1</title>
<polygon fill="blue" stroke="blue" points="493.53,-180 406.53,-180 406.53,-144 493.53,-144 493.53,-180"/>
<text text-anchor="middle" x="450.03" y="-158.3" font-family="Times,serif" font-size="14.00" fill="white">Component1</text>
</g>
<!-- action1 -->
<g id="node2" class="node">
<title>action1</title>
<ellipse fill="none" stroke="black" cx="416.03" cy="-90" rx="36.29" ry="18"/>
<text text-anchor="middle" x="416.03" y="-86.3" font-family="Times,serif" font-size="14.00">action1</text>
</g>
<!-- Component1&#45;&gt;action1 -->
<g id="edge1" class="edge">
<title>Component1&#45;&gt;action1</title>
<path fill="none" stroke="black" d="M441.63,-143.7C437.83,-135.87 433.24,-126.44 429.02,-117.73"/>
<polygon fill="black" stroke="black" points="432.29,-116.45 424.77,-108.98 425.99,-119.51 432.29,-116.45"/>
</g>
<!-- Reducer2 -->
<g id="node7" class="node">
<title>Reducer2</title>
<polygon fill="purple" stroke="purple" points="467.1,-18 441.57,-36 390.5,-36 364.97,-18 390.5,0 441.57,0 467.1,-18"/>
<text text-anchor="middle" x="416.03" y="-14.3" font-family="Times,serif" font-size="14.00" fill="white">Reducer2</text>
</g>
<!-- action1&#45;&gt;Reducer2 -->
<g id="edge6" class="edge">
<title>action1&#45;&gt;Reducer2</title>
<path fill="none" stroke="black" d="M416.03,-71.7C416.03,-64.41 416.03,-55.73 416.03,-47.54"/>
<polygon fill="black" stroke="black" points="419.53,-47.62 416.03,-37.62 412.53,-47.62 419.53,-47.62"/>
</g>
<!-- Component2 -->
<g id="node3" class="node">
<title>Component2</title>
<polygon fill="blue" stroke="blue" points="297.53,-180 210.53,-180 210.53,-144 297.53,-144 297.53,-180"/>
<text text-anchor="middle" x="254.03" y="-158.3" font-family="Times,serif" font-size="14.00" fill="white">Component2</text>
</g>
<!-- MainAction -->
<g id="node4" class="node">
<title>MainAction</title>
<ellipse fill="green" stroke="green" cx="262.03" cy="-90" rx="53.89" ry="18"/>
<text text-anchor="middle" x="262.03" y="-86.3" font-family="Times,serif" font-size="14.00" fill="white">MainAction</text>
</g>
<!-- Component2&#45;&gt;MainAction -->
<g id="edge2" class="edge">
<title>Component2&#45;&gt;MainAction</title>
<path fill="none" stroke="black" d="M256.01,-143.7C256.84,-136.41 257.84,-127.73 258.77,-119.54"/>
<polygon fill="black" stroke="black" points="262.25,-119.94 259.91,-109.61 255.29,-119.15 262.25,-119.94"/>
</g>
<!-- Reducer1 -->
<g id="node5" class="node">
<title>Reducer1</title>
<polygon fill="purple" stroke="purple" points="102.1,-162 76.57,-180 25.5,-180 -0.03,-162 25.5,-144 76.57,-144 102.1,-162"/>
<text text-anchor="middle" x="51.03" y="-158.3" font-family="Times,serif" font-size="14.00" fill="white">Reducer1</text>
</g>
<!-- action5 -->
<g id="node6" class="node">
<title>action5</title>
<ellipse fill="none" stroke="black" cx="156.03" cy="-234" rx="36.29" ry="18"/>
<text text-anchor="middle" x="156.03" y="-230.3" font-family="Times,serif" font-size="14.00">action5</text>
</g>
<!-- action5&#45;&gt;Reducer1 -->
<g id="edge3" class="edge">
<title>action5&#45;&gt;Reducer1</title>
<path fill="none" stroke="black" d="M135.04,-219C121.03,-209.66 102.27,-197.16 86.04,-186.34"/>
<polygon fill="black" stroke="black" points="88.35,-183.67 78.08,-181.03 84.46,-189.49 88.35,-183.67"/>
</g>
<!-- action2 -->
<g id="node9" class="node">
<title>action2</title>
<ellipse fill="none" stroke="black" cx="352.03" cy="-162" rx="36.29" ry="18"/>
<text text-anchor="middle" x="352.03" y="-158.3" font-family="Times,serif" font-size="14.00">action2</text>
</g>
<!-- action5&#45;&gt;action2 -->
<g id="edge12" class="edge">
<title>action5&#45;&gt;action2</title>
<path fill="none" stroke="black" d="M185.34,-222.94C215.81,-212.43 264.87,-195.36 307.03,-180 309.09,-179.25 311.2,-178.47 313.33,-177.69"/>
<polygon fill="black" stroke="black" points="314.42,-181.02 322.57,-174.24 311.98,-174.46 314.42,-181.02"/>
</g>
<!-- action4 -->
<g id="node11" class="node">
<title>action4</title>
<ellipse fill="none" stroke="black" cx="156.03" cy="-162" rx="36.29" ry="18"/>
<text text-anchor="middle" x="156.03" y="-158.3" font-family="Times,serif" font-size="14.00">action4</text>
</g>
<!-- action5&#45;&gt;action4 -->
<g id="edge10" class="edge">
<title>action5&#45;&gt;action4</title>
<path fill="none" stroke="black" d="M156.03,-215.7C156.03,-208.41 156.03,-199.73 156.03,-191.54"/>
<polygon fill="black" stroke="black" points="159.53,-191.62 156.03,-181.62 152.53,-191.62 159.53,-191.62"/>
</g>
<!-- action6 -->
<g id="node8" class="node">
<title>action6</title>
<ellipse fill="none" stroke="black" cx="507.03" cy="-90" rx="36.29" ry="18"/>
<text text-anchor="middle" x="507.03" y="-86.3" font-family="Times,serif" font-size="14.00">action6</text>
</g>
<!-- action6&#45;&gt;Reducer2 -->
<g id="edge4" class="edge">
<title>action6&#45;&gt;Reducer2</title>
<path fill="none" stroke="black" d="M488.18,-74.5C476.5,-65.52 461.22,-53.76 447.72,-43.37"/>
<polygon fill="black" stroke="black" points="449.99,-40.7 439.93,-37.38 445.72,-46.25 449.99,-40.7"/>
</g>
<!-- action2&#45;&gt;action1 -->
<g id="edge7" class="edge">
<title>action2&#45;&gt;action1</title>
<path fill="none" stroke="black" d="M366.56,-145.12C374.66,-136.26 384.91,-125.04 393.99,-115.12"/>
<polygon fill="black" stroke="black" points="396.38,-117.68 400.55,-107.94 391.22,-112.96 396.38,-117.68"/>
</g>
<!-- action2&#45;&gt;MainAction -->
<g id="edge8" class="edge">
<title>action2&#45;&gt;MainAction</title>
<path fill="none" stroke="black" d="M333.39,-146.5C321.22,-137.04 305.09,-124.49 291.24,-113.72"/>
<polygon fill="black" stroke="black" points="293.78,-111.26 283.73,-107.88 289.48,-116.78 293.78,-111.26"/>
</g>
<!-- action2&#45;&gt;Reducer2 -->
<g id="edge5" class="edge">
<title>action2&#45;&gt;Reducer2</title>
<path fill="none" stroke="black" d="M353.2,-143.79C355.02,-125.24 359.6,-95.25 371.03,-72 375.88,-62.14 382.98,-52.58 390.11,-44.37"/>
<polygon fill="black" stroke="black" points="392.55,-46.88 396.73,-37.15 387.39,-42.15 392.55,-46.88"/>
</g>
<!-- action3 -->
<g id="node10" class="node">
<title>action3</title>
<ellipse fill="none" stroke="black" cx="299.03" cy="-234" rx="36.29" ry="18"/>
<text text-anchor="middle" x="299.03" y="-230.3" font-family="Times,serif" font-size="14.00">action3</text>
</g>
<!-- action3&#45;&gt;action2 -->
<g id="edge11" class="edge">
<title>action3&#45;&gt;action2</title>
<path fill="none" stroke="black" d="M311.33,-216.76C317.75,-208.28 325.75,-197.71 332.96,-188.2"/>
<polygon fill="black" stroke="black" points="335.65,-190.44 338.89,-180.35 330.07,-186.21 335.65,-190.44"/>
</g>
<!-- action3&#45;&gt;action4 -->
<g id="edge9" class="edge">
<title>action3&#45;&gt;action4</title>
<path fill="none" stroke="black" d="M273.8,-220.65C250.82,-209.4 216.68,-192.69 191.07,-180.15"/>
<polygon fill="black" stroke="black" points="192.9,-177.15 182.38,-175.9 189.82,-183.44 192.9,-177.15"/>
</g>
</g>
</svg>
